<svg width="36" height="36" viewBox="0 0 36 36" fill="none" xmlns="http://www.w3.org/2000/svg">
<path opacity="0.3" d="M29.7701 31.6972C26.5129 34.9544 18.1714 31.8938 11.1388 24.8612C4.10621 17.8286 1.04565 9.48712 4.30284 6.22992L6.44745 4.0853C7.928 2.60476 10.3676 2.6439 11.8964 4.17272L15.2182 7.49453C16.747 9.02336 16.7862 11.4629 15.3056 12.9435L14.845 13.4041C14.0456 14.2035 13.9674 15.493 14.7102 16.3931C15.4266 17.2613 16.199 18.1261 17.0365 18.9635C17.8739 19.801 18.7387 20.5734 19.6069 21.2898C20.507 22.0326 21.7965 21.9544 22.5959 21.155L23.0565 20.6944C24.5371 19.2138 26.9766 19.253 28.5055 20.7818L31.8273 24.1036C33.3561 25.6324 33.3952 28.072 31.9147 29.5525L29.7701 31.6972Z" fill="#37D193" stroke="#37D193" stroke-width="1.5"/>
</svg>
