<svg width="24" height="24" viewBox="0 0 24 24" fill="none" xmlns="http://www.w3.org/2000/svg">
<path d="M6.30361 19.7928L7.17241 20.3004C8.63747 21.155 10.3039 21.6036 12 21.6C13.8987 21.6 15.7548 21.037 17.3335 19.9821C18.9122 18.9272 20.1426 17.4279 20.8692 15.6737C21.5958 13.9196 21.786 11.9893 21.4155 10.1271C21.0451 8.26491 20.1308 6.55435 18.7882 5.21177C17.4456 3.86919 15.7351 2.95488 13.8729 2.58446C12.0107 2.21404 10.0804 2.40415 8.32625 3.13075C6.57208 3.85736 5.07277 5.08781 4.01791 6.66652C2.96305 8.24523 2.40002 10.1013 2.40002 12C2.39651 13.6966 2.84554 15.3635 3.70082 16.8288L4.20722 17.6976L3.42362 20.5788L6.30361 19.7928ZM0.00481854 24L1.62722 18.0384C0.557968 16.2059 -0.00369795 14.1216 1.83224e-05 12C1.83224e-05 5.3724 5.37242 0 12 0C18.6276 0 24 5.3724 24 12C24 18.6276 18.6276 24 12 24C9.87932 24.0036 7.79591 23.4424 5.96401 22.374L0.00481854 24ZM7.66921 6.3696C7.83081 6.3584 7.99201 6.3568 8.15281 6.3648C8.21761 6.3696 8.28241 6.376 8.34721 6.384C8.53801 6.4056 8.74801 6.52199 8.81881 6.68279C9.17641 7.49479 9.52361 8.31079 9.86041 9.13079C9.93481 9.31319 9.89041 9.54719 9.74881 9.77519C9.67681 9.89159 9.56401 10.0548 9.43321 10.2216C9.29761 10.3956 9.00601 10.7148 9.00601 10.7148C9.00601 10.7148 8.88721 10.8564 8.93281 11.0328C8.94961 11.1 9.00481 11.1972 9.05521 11.2788L9.12601 11.3928C9.43321 11.9052 9.84601 12.4248 10.35 12.9144C10.494 13.0536 10.6344 13.1964 10.7856 13.3296C11.3472 13.8252 11.9832 14.2296 12.6696 14.5296L12.6756 14.532C12.7776 14.5764 12.8292 14.6004 12.978 14.664C13.0524 14.6952 13.1288 14.7216 13.2072 14.7432C13.236 14.7512 13.2652 14.7556 13.2948 14.7564C13.3632 14.759 13.4313 14.7448 13.493 14.7151C13.5547 14.6854 13.6082 14.6411 13.6488 14.586C14.5164 13.5348 14.5968 13.4664 14.6028 13.4664V13.4688C14.6631 13.4124 14.7348 13.3696 14.813 13.3433C14.8913 13.317 14.9743 13.3078 15.0564 13.3164C15.13 13.3196 15.2008 13.3356 15.2688 13.3644C15.906 13.656 16.9488 14.1108 16.9488 14.1108L17.6472 14.424C17.7648 14.4804 17.8716 14.6136 17.8752 14.742C17.88 14.8224 17.8872 14.952 17.8596 15.1896C17.8212 15.5004 17.7276 15.8736 17.634 16.0692C17.5691 16.2022 17.4841 16.3245 17.382 16.4316C17.2608 16.5586 17.1283 16.6743 16.986 16.7772C16.8868 16.8508 16.8368 16.8868 16.836 16.8852C16.6868 16.9799 16.5334 17.068 16.3764 17.1492C16.0673 17.3129 15.7261 17.4071 15.3768 17.4252C15.1548 17.4372 14.9328 17.454 14.7096 17.442C14.7 17.442 14.028 17.3376 14.028 17.3376C12.3219 16.8888 10.7441 16.0481 9.42001 14.8824C9.14881 14.6436 8.89681 14.3868 8.64001 14.1312C7.57441 13.0692 6.76681 11.9232 6.27601 10.8408C6.02702 10.3095 5.89212 9.73185 5.88001 9.14519C5.8755 8.41649 6.11408 7.70708 6.55801 7.12919C6.64561 7.01639 6.72841 6.89879 6.87121 6.7632C7.02241 6.6192 7.11961 6.5424 7.22401 6.4896C7.36326 6.42119 7.51445 6.38044 7.66921 6.3696Z" fill="#ffffffff"/>
</svg>
