<svg width="36" height="36" viewBox="0 0 36 36" fill="none" xmlns="http://www.w3.org/2000/svg">
<g clip-path="url(#clip0_82_156)">
<rect x="3" y="3" width="30" height="30" rx="6" fill="#4381C1"/>
<path d="M42.648 44.768C40.728 44.768 39.224 44.256 38.136 43.232C37.048 42.144 36.504 40.608 36.504 38.624V31.136H12.792C10.808 31.136 9.208 30.72 7.992 29.888C6.84 29.056 6.264 27.744 6.264 25.952C6.264 24.928 6.52 23.808 7.032 22.592C7.608 21.376 8.6 19.776 10.008 17.792L36.312 -20.32C37.208 -21.664 38.2 -22.688 39.288 -23.392C40.376 -24.096 41.624 -24.448 43.032 -24.448C44.696 -24.448 46.072 -23.936 47.16 -22.912C48.248 -21.952 48.792 -20.416 48.792 -18.304V20.96H53.496C55.352 20.96 56.728 21.408 57.624 22.304C58.584 23.136 59.064 24.384 59.064 26.048C59.064 27.712 58.584 28.992 57.624 29.888C56.728 30.72 55.352 31.136 53.496 31.136H48.792V38.624C48.792 40.608 48.248 42.144 47.16 43.232C46.072 44.256 44.568 44.768 42.648 44.768ZM36.504 20.96V-8.992H39.288L16.632 24.224V20.96H36.504Z" fill="#F4F3EE"/>
</g>
<rect x="1.5" y="1.5" width="33" height="33" rx="7.5" stroke="#4381C1" stroke-width="3"/>
<defs>
<clipPath id="clip0_82_156">
<rect x="3" y="3" width="30" height="30" rx="6" fill="white"/>
</clipPath>
</defs>
</svg>
