<svg width="159" height="54" viewBox="0 0 159 54" fill="none" xmlns="http://www.w3.org/2000/svg">
<g clip-path="url(#clip0_1_993)">
<rect x="3" y="12" width="30" height="30" rx="6" fill="#4381C1"/>
<path d="M42.648 53.768C40.728 53.768 39.224 53.256 38.136 52.232C37.048 51.144 36.504 49.608 36.504 47.624V40.136H12.792C10.808 40.136 9.208 39.72 7.992 38.888C6.84 38.056 6.264 36.744 6.264 34.952C6.264 33.928 6.52 32.808 7.032 31.592C7.608 30.376 8.6 28.776 10.008 26.792L36.312 -11.32C37.208 -12.664 38.2 -13.688 39.288 -14.392C40.376 -15.096 41.624 -15.448 43.032 -15.448C44.696 -15.448 46.072 -14.936 47.16 -13.912C48.248 -12.952 48.792 -11.416 48.792 -9.304V29.96H53.496C55.352 29.96 56.728 30.408 57.624 31.304C58.584 32.136 59.064 33.384 59.064 35.048C59.064 36.712 58.584 37.992 57.624 38.888C56.728 39.72 55.352 40.136 53.496 40.136H48.792V47.624C48.792 49.608 48.248 51.144 47.16 52.232C46.072 53.256 44.568 53.768 42.648 53.768ZM36.504 29.96V0.00799561H39.288L16.632 33.224V29.96H36.504Z" fill="#F4F3EE"/>
</g>
<rect x="1.5" y="10.5" width="33" height="33" rx="7.5" stroke="#4381C1" stroke-width="3"/>
<path d="M41.896 29.04C41.896 27.2053 42.2373 25.5947 42.92 24.208C43.624 22.8213 44.5733 21.7547 45.768 21.008C46.9627 20.2613 48.296 19.888 49.768 19.888C50.9413 19.888 52.008 20.1333 52.968 20.624C53.9493 21.1147 54.7173 21.776 55.272 22.608V14.32H60.744V38H55.272V35.44C54.76 36.2933 54.024 36.976 53.064 37.488C52.1253 38 51.0267 38.256 49.768 38.256C48.296 38.256 46.9627 37.8827 45.768 37.136C44.5733 36.368 43.624 35.2907 42.92 33.904C42.2373 32.496 41.896 30.8747 41.896 29.04ZM55.272 29.072C55.272 27.7067 54.888 26.6293 54.12 25.84C53.3733 25.0507 52.456 24.656 51.368 24.656C50.28 24.656 49.352 25.0507 48.584 25.84C47.8373 26.608 47.464 27.6747 47.464 29.04C47.464 30.4053 47.8373 31.4933 48.584 32.304C49.352 33.0933 50.28 33.488 51.368 33.488C52.456 33.488 53.3733 33.0933 54.12 32.304C54.888 31.5147 55.272 30.4373 55.272 29.072ZM70.5908 38.256C68.8414 38.256 67.2628 37.8827 65.8548 37.136C64.4681 36.3893 63.3694 35.3227 62.5588 33.936C61.7694 32.5493 61.3748 30.928 61.3748 29.072C61.3748 27.2373 61.7801 25.6267 62.5908 24.24C63.4014 22.832 64.5108 21.7547 65.9188 21.008C67.3268 20.2613 68.9054 19.888 70.6548 19.888C72.4041 19.888 73.9828 20.2613 75.3908 21.008C76.7988 21.7547 77.9081 22.832 78.7188 24.24C79.5294 25.6267 79.9348 27.2373 79.9348 29.072C79.9348 30.9067 79.5188 32.528 78.6868 33.936C77.8761 35.3227 76.7561 36.3893 75.3268 37.136C73.9188 37.8827 72.3401 38.256 70.5908 38.256ZM70.5908 33.52C71.6361 33.52 72.5214 33.136 73.2468 32.368C73.9934 31.6 74.3668 30.5013 74.3668 29.072C74.3668 27.6427 74.0041 26.544 73.2788 25.776C72.5748 25.008 71.7001 24.624 70.6548 24.624C69.5881 24.624 68.7028 25.008 67.9988 25.776C67.2948 26.5227 66.9428 27.6213 66.9428 29.072C66.9428 30.5013 67.2841 31.6 67.9668 32.368C68.6708 33.136 69.5454 33.52 70.5908 33.52ZM80.1818 33.84V29.424L90.2938 14.96H96.4058V29.104H99.0298V33.84H96.4058V38H90.9338V33.84H80.1818ZM91.3178 20.976L85.9418 29.104H91.3178V20.976ZM118.254 20.144L107.054 46.48H101.166L105.262 37.392L97.998 20.144H104.11L108.238 31.312L112.334 20.144H118.254ZM126.121 38.256C124.371 38.256 122.793 37.8827 121.385 37.136C119.998 36.3893 118.899 35.3227 118.089 33.936C117.299 32.5493 116.905 30.928 116.905 29.072C116.905 27.2373 117.31 25.6267 118.121 24.24C118.931 22.832 120.041 21.7547 121.449 21.008C122.857 20.2613 124.435 19.888 126.185 19.888C127.934 19.888 129.513 20.2613 130.921 21.008C132.329 21.7547 133.438 22.832 134.249 24.24C135.059 25.6267 135.465 27.2373 135.465 29.072C135.465 30.9067 135.049 32.528 134.217 33.936C133.406 35.3227 132.286 36.3893 130.857 37.136C129.449 37.8827 127.87 38.256 126.121 38.256ZM126.121 33.52C127.166 33.52 128.051 33.136 128.777 32.368C129.523 31.6 129.897 30.5013 129.897 29.072C129.897 27.6427 129.534 26.544 128.809 25.776C128.105 25.008 127.23 24.624 126.185 24.624C125.118 24.624 124.233 25.008 123.529 25.776C122.825 26.5227 122.473 27.6213 122.473 29.072C122.473 30.5013 122.814 31.6 123.497 32.368C124.201 33.136 125.075 33.52 126.121 33.52ZM153.76 20.144V38H148.288V35.568C147.733 36.3573 146.976 36.9973 146.016 37.488C145.077 37.9573 144.032 38.192 142.88 38.192C141.514 38.192 140.309 37.8933 139.264 37.296C138.218 36.6773 137.408 35.792 136.832 34.64C136.256 33.488 135.968 32.1333 135.968 30.576V20.144H141.408V29.84C141.408 31.0347 141.717 31.9627 142.336 32.624C142.954 33.2853 143.786 33.616 144.832 33.616C145.898 33.616 146.741 33.2853 147.36 32.624C147.978 31.9627 148.288 31.0347 148.288 29.84V20.144H153.76Z" fill="#4381C1"/>
<defs>
<clipPath id="clip0_1_993">
<rect x="3" y="12" width="30" height="30" rx="6" fill="white"/>
</clipPath>
</defs>
</svg>
